<svg xmlns="http://www.w3.org/2000/svg" version="1.1" xmlns:xlink="http://www.w3.org/1999/xlink" xmlns:svgjs="http://svgjs.com/svgjs" width="1440" height="800" preserveAspectRatio="none" viewBox="0 0 1440 800"><g mask="url(&quot;#SvgjsMask1052&quot;)" fill="none"><rect width="1440" height="800" x="0" y="0" fill="url(#SvgjsLinearGradient1053)"></rect><path d="M1263.615,745.988C1313.208,746.465,1359.09,721.172,1385.208,679.011C1412.86,634.373,1421.755,578.136,1395.912,532.427C1369.718,486.097,1316.824,462.761,1263.615,463.944C1212.475,465.081,1165.876,493.323,1141.13,538.092C1117.157,581.461,1120.853,634.015,1146.007,676.71C1170.761,718.725,1214.852,745.519,1263.615,745.988" fill="rgba(28, 83, 142, 0.4)" class="triangle-float1"></path><path d="M400.8949920689612 687.4550378700017L546.0454908791916 574.0510394692884 432.64149247847826 428.900540659058 287.4909936682479 542.3045390597713z" fill="rgba(28, 83, 142, 0.4)" class="triangle-float1"></path><path d="M173.63622448339652 344.0226464960578L-46.27930303902778 317.02041501348634-73.28153452159924 536.9359425359106 146.63399300082506 563.9381740184821z" fill="rgba(28, 83, 142, 0.4)" class="triangle-float2"></path><path d="M552.753,240.33C612.235,243.305,674.577,225.937,706.358,175.569C740.03,122.204,736.598,53.604,705.056,-1.047C673.506,-55.713,615.87,-90.757,552.753,-90.574C489.944,-90.391,430.616,-56.065,401.976,-0.166C375.415,51.675,392.696,112.079,423.637,161.431C452.352,207.233,498.761,237.63,552.753,240.33" fill="rgba(28, 83, 142, 0.4)" class="triangle-float3"></path><path d="M777.874,355.063C858.042,358.73,939.081,325.923,979.878,256.815C1021.275,186.69,1014.175,97.692,970.311,29.084C929.571,-34.638,853.494,-57.797,777.874,-59.139C699.232,-60.534,612.528,-46.096,573.232,22.038C533.957,90.136,564.368,172.716,605.525,239.693C644.318,302.823,703.855,351.678,777.874,355.063" fill="rgba(28, 83, 142, 0.4)" class="triangle-float3"></path><path d="M1198.262,678.743C1254.043,680.944,1311.452,663.089,1341.34,615.94C1373.198,565.682,1372.671,501.342,1343.641,449.399C1313.889,396.163,1259.246,360.413,1198.262,359.931C1136.469,359.443,1076.85,391.983,1048.847,447.069C1022.91,498.092,1042.472,557.268,1073.494,605.369C1101.522,648.827,1146.59,676.704,1198.262,678.743" fill="rgba(28, 83, 142, 0.4)" class="triangle-float2"></path><path d="M516.327,418.787C541.258,418.343,556.465,393.444,567.087,370.885C575.935,352.093,576.475,330.835,566.253,312.754C555.859,294.369,537.447,281.17,516.327,281.098C495.092,281.025,476.584,294.115,465.806,312.411C454.846,331.016,453.071,353.246,462.334,372.751C473.209,395.65,490.981,419.239,516.327,418.787" fill="rgba(28, 83, 142, 0.4)" class="triangle-float1"></path><path d="M1206.8098913216422 818.2904475195678L1346.177097933479 791.2002068146986 1235.8581335702568 595.694517249378z" fill="rgba(28, 83, 142, 0.4)" class="triangle-float1"></path><path d="M380.07773074298296 573.7707951178209L474.22607617337735 329.2028856393265 247.37064020992648 361.08533796640484z" fill="rgba(28, 83, 142, 0.4)" class="triangle-float2"></path><path d="M1354.8308498191695 471.0025099444922L1463.8988804452995 326.2643446977502 1319.1607151985575 217.19631407162035 1210.0926845724275 361.9344793183624z" fill="rgba(28, 83, 142, 0.4)" class="triangle-float3"></path><path d="M243.64553168433594 760.6923195163092L357.0797819550897 697.8146878464718 294.20215028525223 584.3804375757179 180.76790001449845 647.2580692455555z" fill="rgba(28, 83, 142, 0.4)" class="triangle-float2"></path><path d="M682.8396087878714 588.3835738504112L433.6806610952767 566.3456991648145 522.6154233276676 766.096445617192z" fill="rgba(28, 83, 142, 0.4)" class="triangle-float1"></path></g><defs><mask id="SvgjsMask1052"><rect width="1440" height="800" fill="#ffffff"></rect></mask><linearGradient x1="11.11%" y1="-20%" x2="88.89%" y2="120%" gradientUnits="userSpaceOnUse" id="SvgjsLinearGradient1053"><stop stop-color="#0e2a47" offset="0"></stop><stop stop-color="#00459e" offset="1"></stop></linearGradient><style>
            @keyframes float1 {
                0%{transform: translate(0, 0)}
                50%{transform: translate(-10px, 0)}
                100%{transform: translate(0, 0)}
            }

            .triangle-float1 {
                animation: float1 5s infinite;
            }

            @keyframes float2 {
                0%{transform: translate(0, 0)}
                50%{transform: translate(-5px, -5px)}
                100%{transform: translate(0, 0)}
            }

            .triangle-float2 {
                animation: float2 4s infinite;
            }

            @keyframes float3 {
                0%{transform: translate(0, 0)}
                50%{transform: translate(0, -10px)}
                100%{transform: translate(0, 0)}
            }

            .triangle-float3 {
                animation: float3 6s infinite;
            }
        </style></defs></svg>